<svg xmlns="http://www.w3.org/2000/svg" width="512" height="512" id="flickr"><switch><g><path fill="#ED2183" d="M258 506.875c138.045 0 250-111.921 250-250 0-138.057-111.955-250-250-250-138.067 0-250 111.943-250 250 0 138.079 111.933 250 250 250"></path><path fill="#F2F2F2" d="M383.446 256.875c0 30.526-24.72 55.275-55.249 55.275-30.572 0-55.292-24.771-55.292-55.275 0-30.513 24.72-55.275 55.292-55.275 30.53 0 55.249 24.762 55.249 55.275zM243.072 256.875c0 30.526-24.719 55.275-55.292 55.275-30.507 0-55.227-24.771-55.227-55.275 0-30.513 24.72-55.275 55.227-55.275 30.574 0 55.292 24.762 55.292 55.275zm0 0"></path></g></switch></svg>